<svg width="270" height="120" viewBox="0 0 270 120" fill="none" xmlns="http://www.w3.org/2000/svg">
<rect width="270" height="120" rx="4" fill="#F5F4FA"/>
<g clip-path="url(#clip0_68394_60)">
<path d="M132.65 57.7351H134.982V68.2296H132.65V57.7351Z" fill="#2196F3"/>
<path d="M141.978 62.3994H144.31V68.2297H141.978V62.3994Z" fill="#2196F3"/>
<path d="M123.321 65.8975H125.653V68.2296H123.321V65.8975Z" fill="#2196F3"/>
<path d="M116.325 64.7314H118.657V68.2296H116.325V64.7314Z" fill="#2196F3"/>
<path d="M103.498 86.8866H159.469C161.401 86.8866 162.967 85.3203 162.967 83.3884V78.7242C162.967 76.7923 161.401 75.226 159.469 75.226H158.303V46.1469L164.926 39.8725C166.463 40.6304 168.324 40.1703 169.33 38.7816C170.337 37.3935 170.196 35.4822 168.997 34.2569C167.798 33.0316 165.89 32.8489 164.48 33.8242C163.07 34.8001 162.569 36.6499 163.293 38.2037L158.303 42.9346V40.2443C158.303 38.3125 156.736 36.7462 154.805 36.7462H108.162C106.231 36.7462 104.664 38.3125 104.664 40.2443V75.226H103.498C101.566 75.226 100 76.7923 100 78.7242V83.3884C100 85.3203 101.566 86.8866 103.498 86.8866ZM166.465 35.5801C167.109 35.5801 167.631 36.1022 167.631 36.7462C167.631 37.3901 167.109 37.9122 166.465 37.9122C165.821 37.9122 165.299 37.3901 165.299 36.7462C165.299 36.1022 165.821 35.5801 166.465 35.5801ZM106.996 40.2443C106.996 39.6004 107.518 39.0783 108.162 39.0783H154.805C155.449 39.0783 155.971 39.6004 155.971 40.2443V45.1414L153.639 47.3574V42.5764C153.639 41.9325 153.116 41.4104 152.473 41.4104H110.495C109.851 41.4104 109.328 41.9325 109.328 42.5764V71.7278C109.328 72.3718 109.851 72.8939 110.495 72.8939H152.473C153.116 72.8939 153.639 72.3718 153.639 71.7278V50.5652L155.971 48.3555V75.226H106.996V40.2443ZM117.491 55.4031C115.913 55.3985 114.528 56.4495 114.108 57.9703C113.689 59.4911 114.338 61.1041 115.695 61.9092C117.051 62.7143 118.779 62.5121 119.913 61.415L123.966 63.4487C124.437 63.6844 125.008 63.574 125.358 63.1806L133.974 53.4871L142.444 59.8338C142.899 60.1743 143.533 60.1379 143.945 59.7479L151.306 52.7749V70.5618H111.661V43.7425H151.306V49.562L143.056 57.3748L134.515 50.9717C134.03 50.6084 133.348 50.6768 132.944 51.1294L124.21 60.9572L120.945 59.3243C120.969 59.1842 120.983 59.043 120.989 58.9012C120.989 56.9694 119.423 55.4031 117.491 55.4031ZM118.657 58.9012C118.657 59.5452 118.135 60.0673 117.491 60.0673C116.847 60.0673 116.325 59.5452 116.325 58.9012C116.325 58.2573 116.847 57.7352 117.491 57.7352C118.135 57.7352 118.657 58.2573 118.657 58.9012ZM125.653 77.5581H137.314V78.7242C137.314 79.3681 136.792 79.8902 136.148 79.8902H126.819C126.175 79.8902 125.653 79.3681 125.653 78.7242V77.5581ZM102.332 78.7242C102.332 78.0802 102.854 77.5581 103.498 77.5581H123.321V78.7242C123.321 80.656 124.887 82.2223 126.819 82.2223H136.148C138.08 82.2223 139.646 80.656 139.646 78.7242V77.5581H159.469C160.113 77.5581 160.635 78.0802 160.635 78.7242V83.3884C160.635 84.0324 160.113 84.5545 159.469 84.5545H103.498C102.854 84.5545 102.332 84.0324 102.332 83.3884V78.7242Z" fill="#212121"/>
</g>
<defs>
<clipPath id="clip0_68394_60">
<rect width="70" height="70" fill="white" transform="translate(100 25)"/>
</clipPath>
</defs>
</svg>
