<svg width="270" height="120" viewBox="0 0 270 120" fill="none" xmlns="http://www.w3.org/2000/svg">
<rect width="270" height="120" rx="4" fill="#F5F4FA"/>
<path d="M169.943 34.8964C169.806 34.4752 169.442 34.1673 169.002 34.103L164.823 33.4952L162.953 29.7081C162.561 28.9101 161.253 28.9101 160.861 29.7081L158.991 33.4952L154.811 34.1032C154.372 34.1673 154.008 34.4742 153.869 34.8966C153.732 35.3189 153.845 35.7832 154.164 36.0925L157.189 39.0407L156.475 43.2035C156.401 43.641 156.58 44.0831 156.938 44.3445C157.301 44.6083 157.775 44.6408 158.168 44.4331L161.906 42.4672L165.644 44.4331C165.815 44.5229 166.002 44.5672 166.188 44.5672C166.429 44.5672 166.671 44.4926 166.874 44.3444C167.233 44.0831 167.413 43.6408 167.337 43.2033L166.623 39.0406L169.648 36.0923C169.965 35.782 170.08 35.3188 169.943 34.8964ZM164.556 37.7992C164.282 38.0663 164.155 38.4536 164.221 38.8317L164.638 41.2689L162.45 40.1185C162.28 40.0287 162.093 39.9844 161.906 39.9844C161.72 39.9844 161.534 40.0287 161.362 40.1185L159.174 41.2689L159.591 38.8317C159.657 38.4536 159.531 38.0675 159.256 37.7992L157.484 36.0725L159.932 35.7166C160.312 35.6618 160.64 35.4227 160.811 35.0784L161.905 32.8618L162.999 35.0784C163.17 35.4225 163.497 35.6618 163.878 35.7166L166.325 36.0725L164.556 37.7992Z" fill="#2196F3"/>
<path d="M157.167 69.8923H154.834V72.2257H157.167V69.8923Z" fill="#2196F3"/>
<path d="M157.167 74.5591H154.834V76.8925H157.167V74.5591Z" fill="#2196F3"/>
<path d="M159.5 72.2256H157.167V74.559H159.5V72.2256Z" fill="#2196F3"/>
<path d="M154.834 72.2256H152.5V74.559H154.834V72.2256Z" fill="#2196F3"/>
<path d="M149 82.7258H146.667V85.0592H149V82.7258Z" fill="#2196F3"/>
<path d="M149 87.3926H146.667V89.726H149V87.3926Z" fill="#2196F3"/>
<path d="M151.334 85.0593H149V87.3927H151.334V85.0593Z" fill="#2196F3"/>
<path d="M146.667 85.0593H144.333V87.3927H146.667V85.0593Z" fill="#2196F3"/>
<path d="M135 78.0593H132.667V80.3927H135V78.0593Z" fill="#2196F3"/>
<path d="M135 82.7258H132.667V85.0592H135V82.7258Z" fill="#2196F3"/>
<path d="M137.333 80.3926H135V82.726H137.333V80.3926Z" fill="#2196F3"/>
<path d="M132.667 80.3926H130.333V82.726H132.667V80.3926Z" fill="#2196F3"/>
<path d="M112.833 38.3918H110.5V40.7253H112.833V38.3918Z" fill="#2196F3"/>
<path d="M112.833 43.0586H110.5V45.392H112.833V43.0586Z" fill="#2196F3"/>
<path d="M115.166 40.7253H112.833V43.0588H115.166V40.7253Z" fill="#2196F3"/>
<path d="M110.5 40.7253H108.166V43.0588H110.5V40.7253Z" fill="#2196F3"/>
<path d="M154.064 55.9737C153.435 55.1255 152.512 54.5796 151.464 54.4325C150.412 54.2832 149.373 54.5596 148.533 55.2025L145.795 57.3013L145.794 57.3025L141.643 60.4024L138.672 59.2194C143.969 56.8429 147.671 51.5449 147.671 45.3942C147.671 37.0313 140.84 30.2273 132.444 30.2273C124.047 30.2273 117.216 37.0313 117.216 45.3942C117.216 48.4253 118.123 51.2439 119.666 53.6157L113.62 53.5632C113.617 53.5632 113.613 53.5632 113.61 53.5632C113.591 53.5632 113.576 53.5725 113.559 53.5738C113.443 53.5784 113.33 53.6018 113.219 53.6414C113.191 53.652 113.162 53.6578 113.135 53.6705C113.121 53.6764 113.107 53.6775 113.093 53.6845L106.021 57.1763C106.02 57.1763 106.018 57.1763 106.018 57.1774L101.877 59.1692C101.831 59.189 101.784 59.2158 101.739 59.2462C100.088 60.3451 99.5257 62.5035 100.43 64.2675C100.912 65.2055 101.732 65.8963 102.74 66.2124C103.129 66.3336 103.525 66.3932 103.92 66.3932C104.553 66.3932 105.181 66.2381 105.756 65.9313L108.792 64.3166L113.744 61.7592L116.712 61.7417L104.808 73.5883C104.807 73.5895 104.806 73.5895 104.805 73.5906L101.876 76.5073C101.185 77.1957 100.804 78.1091 100.804 79.0834C100.804 80.0564 101.185 80.9722 101.876 81.6618C102.587 82.3688 103.522 82.7235 104.456 82.7235C105.392 82.7235 106.325 82.3688 107.038 81.6618L109.913 78.7987L113.721 75.9555L115.691 77.9179L111.838 81.7551C111.836 81.7563 111.835 81.7563 111.834 81.7574L108.906 84.6741C108.214 85.3624 107.833 86.2759 107.833 87.2501C107.833 88.2232 108.214 89.1389 108.906 89.8286C109.616 90.5356 110.552 90.8902 111.486 90.8902C112.421 90.8902 113.357 90.5356 114.068 89.8286L116.998 86.9119L121.684 82.2452C121.685 82.244 121.685 82.2429 121.687 82.2417L123.895 80.0541L123.887 80.0459C123.901 80.032 123.921 80.0272 123.935 80.0121L135.235 67.6348L142.828 68.7152C142.883 68.7234 142.938 68.7268 142.993 68.7268C143.134 68.7268 143.27 68.693 143.402 68.6428C143.441 68.6289 143.474 68.6102 143.511 68.5916C143.553 68.5705 143.597 68.5589 143.637 68.5321L150.666 63.8654C150.692 63.8479 150.706 63.8199 150.73 63.8013C150.758 63.7791 150.793 63.7698 150.819 63.7452L153.6 61.14C155.047 59.784 155.247 57.5627 154.064 55.9737ZM104.66 63.8721C104.281 64.0751 103.851 64.1159 103.439 63.9853C103.03 63.8582 102.699 63.5793 102.505 63.2025C102.153 62.5164 102.357 61.681 102.974 61.2296L105.848 59.8471L106.54 61.8689L106.83 62.7182L104.66 63.8721ZM112.31 59.874L108.923 61.624L108.365 59.9906L107.963 58.8169L112.397 56.6281L112.31 59.874ZM145.34 45.3918C145.34 47.4008 144.861 49.2956 144.03 50.9907L134.883 46.8361C134.788 45.582 134.137 44.4841 133.159 43.8004L136.361 33.1684C141.563 34.8229 145.34 39.6751 145.34 45.3918ZM119.552 45.3918C119.552 38.3158 125.336 32.5582 132.446 32.5582C132.999 32.5582 133.54 32.6049 134.076 32.6725L130.943 43.0713C130.901 43.07 130.862 43.0584 130.819 43.0584C128.56 43.0584 126.722 44.8901 126.722 47.1419C126.722 49.3935 128.56 51.2253 130.819 51.2253C132.338 51.2253 133.65 50.3865 134.358 49.159L142.807 52.9975C140.456 56.1615 136.694 58.2254 132.446 58.2254C125.336 58.2254 119.552 52.4678 119.552 45.3918ZM132.581 47.1419C132.581 48.1067 131.79 48.8919 130.819 48.8919C129.847 48.8919 129.056 48.1067 129.056 47.1419C129.056 46.177 129.847 45.3918 130.819 45.3918C131.79 45.3918 132.581 46.177 132.581 47.1419ZM105.392 80.0074C104.875 80.5195 104.038 80.5184 103.523 80.0086C103.274 79.76 103.138 79.4323 103.138 79.0834C103.138 78.7357 103.274 78.4079 103.523 78.1618L105.627 76.0652L107.489 77.9191L105.392 80.0074ZM112.422 88.1742C111.905 88.6864 111.068 88.6876 110.552 88.1755C110.303 87.9269 110.167 87.5992 110.167 87.2503C110.167 86.9026 110.303 86.5747 110.552 86.3287L112.658 84.2309L113.539 85.1072L114.521 86.0849L112.422 88.1742ZM120.038 80.5861C120.037 80.5872 120.036 80.5872 120.035 80.5884L116.174 84.4385L115.293 83.5622L114.311 82.5845L118.168 78.745C118.168 78.745 118.168 78.745 118.168 78.7439C118.169 78.7427 118.17 78.7427 118.172 78.7416C118.259 78.6541 118.314 78.5491 118.368 78.4453C118.383 78.415 118.412 78.3893 118.425 78.3578C118.461 78.268 118.467 78.1712 118.481 78.0766C118.488 78.0229 118.511 77.9728 118.511 77.9179C118.511 77.8397 118.483 77.7639 118.467 77.6868C118.453 77.6168 118.453 77.5456 118.426 77.478C118.382 77.3684 118.306 77.2716 118.227 77.177C118.204 77.1513 118.196 77.1186 118.172 77.0941C118.172 77.0941 118.172 77.0941 118.17 77.0941C118.169 77.093 118.169 77.0906 118.168 77.0895L114.653 73.5894C114.616 73.5521 114.568 73.5369 114.526 73.5055C114.464 73.4576 114.405 73.4133 114.336 73.3794C114.269 73.3467 114.201 73.3269 114.131 73.3082C114.057 73.2871 113.984 73.2709 113.906 73.265C113.835 73.2603 113.769 73.2673 113.698 73.2755C113.619 73.2848 113.546 73.2953 113.47 73.3198C113.396 73.3432 113.331 73.3793 113.264 73.4178C113.22 73.4423 113.171 73.4505 113.131 73.4809L109.251 76.3766L107.281 74.4142L112.529 69.1945L122.067 78.5759L120.038 80.5861ZM134.954 65.2371C134.921 65.2325 134.889 65.2453 134.855 65.243C134.77 65.2384 134.689 65.2442 134.603 65.2582C134.537 65.2698 134.474 65.2827 134.411 65.3048C134.336 65.3305 134.269 65.3655 134.2 65.4075C134.134 65.4471 134.075 65.4891 134.018 65.5416C133.99 65.5661 133.956 65.5778 133.93 65.6057L123.653 76.862L114.185 67.5506L120.382 61.3858C120.839 60.9308 120.841 60.1923 120.386 59.7349C120.156 59.5051 119.854 59.3919 119.552 59.3931V59.392L114.698 59.4212L114.759 55.9048L121.549 55.9632C124.317 58.7936 128.176 60.5588 132.446 60.5588C133.403 60.5588 134.336 60.4597 135.245 60.2904C135.332 60.3604 135.419 60.4317 135.528 60.476L140.8 62.576L141.133 64.235L141.523 66.1716L134.954 65.2371ZM143.794 65.6268L143.11 62.2189L146.274 59.8563L147.102 60.9553L148.345 62.605L143.794 65.6268ZM152.005 59.434L150.173 61.1514L148.136 58.447L149.954 57.0529C150.294 56.7916 150.722 56.6854 151.142 56.7402C151.564 56.7997 151.938 57.0202 152.192 57.362C152.666 58.0002 152.585 58.8904 152.005 59.434Z" fill="#212121"/>
<path d="M129.755 65.5651L125.067 60.8984C124.613 60.4447 123.876 60.4447 123.421 60.8984L118.734 65.5651C118.515 65.7857 118.391 66.0819 118.391 66.3923C118.391 66.7026 118.513 67.0002 118.734 67.2195L123.421 71.8861C123.648 72.1124 123.947 72.2256 124.244 72.2256C124.542 72.2256 124.84 72.1124 125.067 71.8861L129.755 67.2195C129.974 67.0002 130.099 66.7026 130.099 66.3923C130.099 66.0819 129.975 65.7844 129.755 65.5651ZM124.244 69.4129L121.211 66.3923L124.244 63.3717L127.279 66.3923L124.244 69.4129Z" fill="#212121"/>
<path d="M137.547 36.0923L136.983 38.358C137.138 38.3966 140.784 39.3462 140.784 43.0586H143.118C143.118 38.6461 139.474 36.5718 137.547 36.0923Z" fill="#212121"/>
<path d="M143.118 45.3918H140.784V47.7253H143.118V45.3918Z" fill="#212121"/>
</svg>
